# xmcd
#
# Track frame offsets:
#	150
#	15550
#	28749
#	42842
#	59593
#	77773
#	87856
#	106490
#	122463
#	140923
#	154895
#	169630
#	187029
#	206402
#	208691
#	210267
#	212860
#	217630
#	221212
#
# Disc length: 2968
#
# Revision: 2
# Processed by: cddbd v1.5.1PL0 Copyright (c) Steve Scherf et al.
# Submitted via: audiograbber 1.82.02
# Normalized: r1:DSETVAR1
#
DISCID=150b9613
DTITLE=Various Artist - CDX 302 October 2002
DYEAR=2002
DGENRE=Country
TTITLE0=Mark Wills - 19 Somethin'
TTITLE1=Pam Tillis - Honey (Open That Door)
TTITLE2=Kevin Denney - It'll Go Away
TTITLE3=Michael Peterson - Lesson In Goodbye
TTITLE4=Delbert McClinton - Lone Star Blues
TTITLE5=Tim Wilson - The Jeff Gordon Song
TTITLE6=Tommy Shane Steiner and Bridgette Wilson Sampras - What We're Gonna Do About It
TTITLE7=Gary Armagh - Big Big Bang
TTITLE8=Joey D. - I Like My Life
TTITLE9=Kristin Hale - Useless
TTITLE10=Kelly McGuire and Wayne Toups - Wasted On The Young
TTITLE11=Roy D. Mercer - Giant Squarsh
TTITLE12=Bill Engvall - I'm A Cheap Drunk
TTITLE13=Bill Engvall - Comedy Bit
TTITLE14=Bill Engvall - Comedy Bit
TTITLE15=Bill Engvall - Comedy Bit
TTITLE16=Bill Engvall - Comedy Bit
TTITLE17=Bill Engvall - Comedy Bit
TTITLE18=Bill Engvall - Comedy Bit
EXTD=
EXTT0=
EXTT1=
EXTT2=
EXTT3=
EXTT4=
EXTT5=
EXTT6=
EXTT7=
EXTT8=
EXTT9=
EXTT10=
EXTT11=
EXTT12=
EXTT13=
EXTT14=
EXTT15=
EXTT16=
EXTT17=
EXTT18=
PLAYORDER=
